<svg width="38" height="38" viewBox="0 0 38 38" fill="none" xmlns="http://www.w3.org/2000/svg">
<path d="M19 1.1875C9.16275 1.1875 1.1875 9.16275 1.1875 19C1.1875 28.8372 9.16275 36.8125 19 36.8125C28.8372 36.8125 36.8125 28.8372 36.8125 19C36.8125 9.16275 28.8372 1.1875 19 1.1875ZM24.9375 25.1311V28.5H13.0625C13.1907 27.2254 13.585 25.992 14.2197 24.8793C14.8628 23.7381 16.1322 22.227 18.0292 20.3413C19.5557 18.8189 20.4921 17.7864 20.8383 17.2437C21.3038 16.4956 21.5371 15.7546 21.5371 15.0243C21.5371 14.215 21.334 13.5933 20.9285 13.1581C20.523 12.7229 19.9625 12.5062 19.247 12.5062C18.5398 12.5062 17.9764 12.7347 17.559 13.1902C17.141 13.6462 16.8999 14.4044 16.8358 15.4618L13.4597 15.1002C13.6604 13.1047 14.2916 11.6725 15.3526 10.8027C16.4142 9.93462 17.7401 9.5 19.3319 9.5C21.0752 9.5 22.4467 10.0035 23.443 11.0099C24.4393 12.0163 24.9375 13.2691 24.9375 14.766C24.9375 15.6174 24.795 16.4291 24.5094 17.1992C24.2244 17.9704 23.772 18.7762 23.1533 19.6193C22.743 20.178 22.0032 20.9831 20.9344 22.0323C19.8663 23.0832 19.1888 23.7797 18.9038 24.1241C18.6402 24.436 18.4079 24.7731 18.2103 25.1305H24.9375V25.1311Z" fill="#F4DD5A"/>
</svg>
