<svg width="38" height="38" viewBox="0 0 38 38" fill="none" xmlns="http://www.w3.org/2000/svg">
<path d="M19 1.1875C9.16275 1.1875 1.1875 9.16275 1.1875 19C1.1875 28.8372 9.16275 36.8125 19 36.8125C28.8372 36.8125 36.8125 28.8372 36.8125 19C36.8125 9.16275 28.8372 1.1875 19 1.1875ZM23.2186 26.7734C22.0721 27.9235 20.6453 28.5 18.9388 28.5C17.3215 28.5 15.9802 28.0155 14.9156 27.0471C13.851 26.0775 13.2335 24.8098 13.0625 23.2453L16.3786 22.8255C16.4849 23.7055 16.7687 24.3794 17.2324 24.8443C17.6961 25.3092 18.2566 25.5425 18.9151 25.5425C19.6217 25.5425 20.2172 25.2629 20.7017 24.7053C21.185 24.1466 21.4278 23.3937 21.4278 22.4449C21.4278 21.5484 21.1957 20.8377 20.732 20.3134C20.2682 19.7879 19.7042 19.5273 19.0374 19.5273C18.598 19.5273 18.0737 19.6151 17.464 19.7927L17.8422 16.8863C18.769 16.9118 19.4762 16.7016 19.9637 16.2575C20.4511 15.8133 20.6952 15.2232 20.6952 14.4869C20.6952 13.8605 20.5164 13.3612 20.159 12.9901C19.801 12.6178 19.3254 12.4313 18.7322 12.4313C18.1474 12.4313 17.6474 12.6421 17.233 13.0655C16.8186 13.4888 16.5668 14.1057 16.4772 14.9186L13.3202 14.361C13.5393 13.2353 13.8712 12.3363 14.3141 11.6636C14.7565 10.9909 15.374 10.4625 16.1672 10.0771C16.9581 9.69238 17.8463 9.5 18.8296 9.5C20.5117 9.5 21.8613 10.0575 22.8766 11.1756C23.7138 12.0893 24.1324 13.1201 24.1324 14.272C24.1324 15.9048 23.275 17.2081 21.5602 18.1812C22.5845 18.4098 23.4032 18.921 24.0172 19.7167C24.6305 20.5123 24.9375 21.4724 24.9375 22.5987C24.9375 24.2315 24.3645 25.6227 23.2186 26.7734Z" fill="#F4DD5A"/>
</svg>
