<svg width="38" height="38" viewBox="0 0 38 38" fill="none" xmlns="http://www.w3.org/2000/svg">
<path d="M19 1.1875C9.16275 1.1875 1.1875 9.16275 1.1875 19C1.1875 28.8372 9.16275 36.8125 19 36.8125C28.8372 36.8125 36.8125 28.8372 36.8125 19C36.8125 9.16275 28.8372 1.1875 19 1.1875ZM23.6734 25.9938C22.5251 27.664 20.9309 28.5 18.8919 28.5C17.2615 28.5 15.9327 28.0303 14.9049 27.0922C13.8777 26.1529 13.2626 24.8912 13.0619 23.3071L16.4344 22.9324C16.5306 23.7512 16.8162 24.3984 17.2894 24.8757C17.7632 25.3549 18.3089 25.5936 18.9276 25.5936C19.6335 25.5936 20.232 25.2848 20.7213 24.6691C21.2111 24.0546 21.4558 23.1266 21.4558 21.8856C21.4558 20.7237 21.2129 19.8514 20.7266 19.2708C20.2415 18.6895 19.6086 18.3985 18.8308 18.3985C17.8588 18.3985 16.9878 18.8599 16.2171 19.7808L13.471 19.3539L15.2065 9.5H24.1543V12.8968H17.7715L17.2413 16.1138C17.996 15.7088 18.7661 15.5064 19.554 15.5064C21.0544 15.5064 22.328 16.0918 23.3718 17.2633C24.4156 18.433 24.9375 19.953 24.9375 21.8227C24.9375 23.3801 24.5159 24.7718 23.6734 25.9938Z" fill="#F4DD5A"/>
</svg>
