<svg width="140" height="140" viewBox="0 0 140 140" fill="none" xmlns="http://www.w3.org/2000/svg">
<path d="M91.975 74.475C92.5061 73.9203 92.9224 73.2661 93.2 72.55C93.7835 71.1298 93.7835 69.5369 93.2 68.1167C92.9224 67.4006 92.5061 66.7465 91.975 66.1917L74.475 48.6917C73.3766 47.5933 71.8868 46.9762 70.3334 46.9762C68.7799 46.9762 67.2901 47.5933 66.1917 48.6917C65.0933 49.7901 64.4762 51.2799 64.4762 52.8334C64.4762 54.3868 65.0933 55.8766 66.1917 56.975L73.775 64.5H52.8334C51.2863 64.5 49.8025 65.1146 48.7086 66.2086C47.6146 67.3025 47 68.7863 47 70.3334C47 71.8805 47.6146 73.3642 48.7086 74.4582C49.8025 75.5521 51.2863 76.1667 52.8334 76.1667H73.775L66.1917 83.6917C65.6449 84.234 65.211 84.8792 64.9148 85.59C64.6187 86.3008 64.4662 87.0633 64.4662 87.8334C64.4662 88.6034 64.6187 89.3659 64.9148 90.0767C65.211 90.7876 65.6449 91.4327 66.1917 91.975C66.734 92.5218 67.3792 92.9557 68.09 93.2519C68.8008 93.548 69.5633 93.7005 70.3334 93.7005C71.1034 93.7005 71.8659 93.548 72.5767 93.2519C73.2876 92.9557 73.9327 92.5218 74.475 91.975L91.975 74.475ZM128.667 70.3334C128.667 58.7961 125.245 47.518 118.836 37.9251C112.426 28.3322 103.316 20.8555 92.6566 16.4404C81.9975 12.0253 70.2687 10.8701 58.9531 13.1209C47.6375 15.3717 37.2435 20.9274 29.0855 29.0855C20.9274 37.2435 15.3717 47.6375 13.1209 58.9531C10.8701 70.2687 12.0253 81.9975 16.4404 92.6566C20.8555 103.316 28.3322 112.426 37.9251 118.836C47.518 125.245 58.7961 128.667 70.3334 128.667C85.8043 128.667 100.642 122.521 111.581 111.581C122.521 100.642 128.667 85.8043 128.667 70.3334ZM23.6667 70.3334C23.6667 61.1036 26.4036 52.081 31.5314 44.4067C36.6592 36.7325 43.9476 30.7511 52.4748 27.219C61.002 23.6869 70.3851 22.7627 79.4376 24.5634C88.49 26.364 96.8052 30.8086 103.332 37.335C109.858 43.8615 114.303 52.1767 116.103 61.2291C117.904 70.2816 116.98 79.6647 113.448 88.1919C109.916 96.7191 103.934 104.007 96.26 109.135C88.5857 114.263 79.5632 117 70.3334 117C57.9566 117 46.0867 112.083 37.335 103.332C28.5833 94.58 23.6667 82.7101 23.6667 70.3334Z" fill="#F4DD5A"/>
</svg>
