<svg width="140" height="140" viewBox="0 0 140 140" fill="none" xmlns="http://www.w3.org/2000/svg">
<path d="M48.3583 65.8583C47.8272 66.4131 47.411 67.0673 47.1333 67.7833C46.5499 69.2035 46.5499 70.7965 47.1333 72.2167C47.411 72.9327 47.8272 73.5869 48.3583 74.1417L65.8583 91.6417C66.9568 92.7401 68.4466 93.3572 70 93.3572C71.5534 93.3572 73.0432 92.7401 74.1416 91.6417C75.2401 90.5432 75.8572 89.0534 75.8572 87.5C75.8572 85.9466 75.2401 84.4568 74.1416 83.3584L66.5583 75.8334H87.5C89.0471 75.8334 90.5308 75.2188 91.6248 74.1248C92.7187 73.0308 93.3333 71.5471 93.3333 70C93.3333 68.4529 92.7187 66.9692 91.6248 65.8752C90.5308 64.7813 89.0471 64.1667 87.5 64.1667H66.5583L74.1416 56.6417C74.6884 56.0994 75.1224 55.4542 75.4185 54.7434C75.7147 54.0325 75.8671 53.2701 75.8671 52.5C75.8671 51.7299 75.7147 50.9675 75.4185 50.2567C75.1224 49.5458 74.6884 48.9006 74.1416 48.3584C73.5994 47.8116 72.9542 47.3776 72.2433 47.0815C71.5325 46.7853 70.7701 46.6329 70 46.6329C69.2299 46.6329 68.4675 46.7853 67.7566 47.0815C67.0458 47.3776 66.4006 47.8116 65.8583 48.3584L48.3583 65.8583ZM11.6667 70C11.6667 81.5373 15.0878 92.8154 21.4976 102.408C27.9073 112.001 37.0178 119.478 47.6768 123.893C58.3358 128.308 70.0647 129.463 81.3802 127.212C92.6958 124.962 103.09 119.406 111.248 111.248C119.406 103.09 124.962 92.6958 127.212 81.3803C129.463 70.0647 128.308 58.3358 123.893 47.6768C119.478 37.0178 112.001 27.9074 102.408 21.4976C92.8154 15.0879 81.5372 11.6667 70 11.6667C62.3395 11.6667 54.7541 13.1755 47.6768 16.107C40.5995 19.0386 34.1688 23.3354 28.7521 28.7521C17.8125 39.6917 11.6667 54.5291 11.6667 70ZM116.667 70C116.667 79.2298 113.93 88.2523 108.802 95.9266C103.674 103.601 96.3858 109.582 87.8585 113.114C79.3313 116.646 69.9482 117.571 60.8958 115.77C51.8433 113.969 43.5281 109.525 37.0017 102.998C30.4752 96.4719 26.0307 88.1567 24.23 79.1042C22.4294 70.0518 23.3535 60.6687 26.8856 52.1415C30.4177 43.6142 36.3991 36.3259 44.0734 31.1981C51.7477 26.0703 60.7702 23.3334 70 23.3334C82.3767 23.3334 94.2466 28.25 102.998 37.0017C111.75 45.7534 116.667 57.6232 116.667 70Z" fill="#4F4F4F"/>
</svg>
