<svg width="31" height="30" viewBox="0 0 31 30" fill="none" xmlns="http://www.w3.org/2000/svg">
<path d="M24.2869 9.00481C24.1707 8.88775 24.0325 8.79483 23.8802 8.73143C23.7278 8.66802 23.5645 8.63538 23.3994 8.63538C23.2344 8.63538 23.071 8.66802 22.9187 8.73143C22.7664 8.79483 22.6281 8.88775 22.5119 9.00481L13.1994 18.3218L9.28694 14.4002C9.16629 14.2837 9.02386 14.1921 8.8678 14.1307C8.71173 14.0692 8.54507 14.0391 8.37735 14.042C8.20962 14.0449 8.04411 14.0808 7.89026 14.1476C7.73641 14.2144 7.59724 14.3108 7.48069 14.4314C7.36414 14.5519 7.2725 14.6942 7.211 14.8502C7.14949 15.0061 7.11933 15.1726 7.12223 15.3402C7.12513 15.5078 7.16104 15.6731 7.22791 15.8269C7.29478 15.9806 7.39129 16.1196 7.51194 16.2361L12.3119 21.0319C12.4281 21.149 12.5664 21.2419 12.7187 21.3053C12.871 21.3687 13.0344 21.4014 13.1994 21.4014C13.3645 21.4014 13.5278 21.3687 13.6802 21.3053C13.8325 21.2419 13.9707 21.149 14.0869 21.0319L24.2869 10.8407C24.4138 10.7238 24.5151 10.5818 24.5843 10.4238C24.6536 10.2659 24.6894 10.0952 24.6894 9.92277C24.6894 9.75029 24.6536 9.57968 24.5843 9.42169C24.5151 9.2637 24.4138 9.12176 24.2869 9.00481Z" fill="black"/>
</svg>
