<svg width="66" height="65" viewBox="0 0 66 65" fill="none" xmlns="http://www.w3.org/2000/svg">
<path d="M50.7174 19.5273C50.4654 19.2735 50.1656 19.072 49.8353 18.9345C49.505 18.797 49.1507 18.7262 48.7928 18.7262C48.435 18.7262 48.0807 18.797 47.7504 18.9345C47.4201 19.072 47.1203 19.2735 46.8683 19.5273L26.6738 39.7315L18.1894 31.2273C17.9278 30.9748 17.6189 30.7762 17.2805 30.643C16.942 30.5097 16.5806 30.4444 16.2169 30.4506C15.8532 30.4569 15.4943 30.5347 15.1607 30.6796C14.827 30.8245 14.5252 31.0336 14.2725 31.295C14.0198 31.5564 13.821 31.865 13.6877 32.2032C13.5543 32.5413 13.4889 32.9024 13.4952 33.2658C13.5015 33.6292 13.5793 33.9878 13.7243 34.3212C13.8693 34.6545 14.0786 34.956 14.3403 35.2086L24.7492 45.6086C25.0012 45.8624 25.301 46.0639 25.6313 46.2014C25.9617 46.3389 26.316 46.4097 26.6738 46.4097C27.0316 46.4097 27.3859 46.3389 27.7163 46.2014C28.0466 46.0639 28.3464 45.8624 28.5984 45.6086L50.7174 23.5086C50.9925 23.255 51.2121 22.9471 51.3623 22.6045C51.5125 22.2619 51.5901 21.892 51.5901 21.5179C51.5901 21.1439 51.5125 20.7739 51.3623 20.4313C51.2121 20.0887 50.9925 19.7809 50.7174 19.5273Z" fill="black"/>
</svg>
