<svg width="40" height="41" viewBox="0 0 40 41" fill="none" xmlns="http://www.w3.org/2000/svg">
<g clip-path="url(#clip0)">
<path d="M20.0009 0.557617C14.6202 0.557617 13.9497 0.583599 11.8439 0.672679C9.72949 0.776605 8.29927 1.10447 7.0373 1.59441C5.71652 2.09303 4.52038 2.87371 3.53225 3.88203C2.52113 4.86784 1.74001 6.06465 1.24463 7.38708C0.754692 8.64904 0.426828 10.0793 0.322902 12.1937C0.227636 14.3007 0.20784 14.97 0.20784 20.3507C0.20784 25.7314 0.233822 26.4019 0.322902 28.5077C0.426828 30.6159 0.754692 32.0523 1.24463 33.3143C1.74326 34.6351 2.52394 35.8312 3.53225 36.8193C4.51807 37.8305 5.71488 38.6116 7.0373 39.107C8.29927 39.5907 9.73568 39.9248 11.8439 40.0287C13.9509 40.1239 14.6202 40.1437 20.0009 40.1437C25.3816 40.1437 26.0522 40.1178 28.1579 40.0287C30.2661 39.9248 31.7025 39.5895 32.9645 39.107C34.2853 38.6083 35.4814 37.8276 36.4696 36.8193C37.482 35.8346 38.2633 34.6375 38.7572 33.3143C39.2409 32.0523 39.575 30.6159 39.6789 28.5077C39.7742 26.4007 39.794 25.7314 39.794 20.3507C39.794 14.97 39.768 14.2994 39.6789 12.1937C39.575 10.0855 39.2397 8.64162 38.7572 7.38708C38.2586 6.0663 37.4779 4.87015 36.4696 3.88203C35.4848 2.8696 34.2877 2.08828 32.9645 1.59441C31.7025 1.10447 30.2661 0.776605 28.1579 0.672679C26.0509 0.577413 25.3816 0.557617 20.0009 0.557617ZM20.0009 4.12081C25.2851 4.12081 25.9161 4.1468 28.0045 4.23588C29.9308 4.32619 30.98 4.64787 31.6766 4.92006C32.5377 5.23793 33.3171 5.74386 33.958 6.40101C34.614 7.0392 35.1181 7.81682 35.4328 8.67626C35.705 9.37282 36.0266 10.422 36.1169 12.3483C36.206 14.4368 36.232 15.069 36.232 20.3519C36.232 25.6349 36.206 26.2671 36.1095 28.3555C36.0056 30.2819 35.6839 31.331 35.413 32.0276C35.0381 32.9567 34.6199 33.6063 33.9295 34.309C33.2865 34.962 32.5076 35.4655 31.6481 35.7838C30.9602 36.056 29.8962 36.3776 27.9624 36.468C25.8629 36.557 25.2442 36.583 19.9465 36.583C14.6487 36.583 14.0313 36.557 11.9293 36.4605C10.0029 36.3566 8.94015 36.0349 8.24359 35.764C7.3033 35.3891 6.65871 34.9709 5.96834 34.2806C5.27179 33.584 4.82886 32.9208 4.48739 31.9991C4.21025 31.3112 3.89352 30.2472 3.79083 28.3134C3.72031 26.2386 3.68691 25.5953 3.68691 20.3222C3.68691 15.0517 3.72031 14.4071 3.79083 12.3063C3.89352 10.3725 4.21025 9.31096 4.48739 8.62059C4.82886 7.67906 5.27302 7.03571 5.96834 6.33915C6.65747 5.65002 7.3033 5.20462 8.24359 4.85572C8.94015 4.58477 9.97694 4.26309 11.9107 4.16659C14.0103 4.09112 14.6289 4.0639 19.9192 4.0639L20.0009 4.12081ZM20.0009 10.1919C18.6664 10.1914 17.3448 10.4539 16.1118 10.9643C14.8787 11.4748 13.7584 12.2233 12.8147 13.1669C11.871 14.1106 11.1226 15.231 10.6121 16.464C10.1016 17.6971 9.83912 19.0186 9.83961 20.3532C9.83912 21.6877 10.1016 23.0092 10.6121 24.2423C11.1226 25.4753 11.871 26.5957 12.8147 27.5394C13.7584 28.483 14.8787 29.2315 16.1118 29.742C17.3448 30.2524 18.6664 30.5149 20.0009 30.5145C21.3354 30.5149 22.657 30.2524 23.89 29.742C25.1231 29.2315 26.2435 28.483 27.1871 27.5394C28.1308 26.5957 28.8792 25.4753 29.3897 24.2423C29.9002 23.0092 30.1627 21.6877 30.1622 20.3532C30.1627 19.0186 29.9002 17.6971 29.3897 16.464C28.8792 15.231 28.1308 14.1106 27.1871 13.1669C26.2435 12.2233 25.1231 11.4748 23.89 10.9643C22.657 10.4539 21.3354 10.1914 20.0009 10.1919ZM20.0009 26.9513C16.3536 26.9513 13.4028 24.0005 13.4028 20.3532C13.4028 16.7058 16.3536 13.7551 20.0009 13.7551C23.6482 13.7551 26.599 16.7058 26.599 20.3532C26.599 24.0005 23.6482 26.9513 20.0009 26.9513ZM32.9472 9.78605C32.9465 10.4166 32.6956 11.0211 32.2495 11.4668C31.8034 11.9124 31.1986 12.1628 30.568 12.1628C30.2562 12.1628 29.9475 12.1013 29.6594 11.982C29.3714 11.8627 29.1096 11.6878 28.8892 11.4674C28.6687 11.2469 28.4938 10.9852 28.3745 10.6971C28.2552 10.409 28.1938 10.1003 28.1938 9.78852C28.1938 9.47674 28.2552 9.168 28.3745 8.87995C28.4938 8.59189 28.6687 8.33016 28.8892 8.10969C29.1096 7.88922 29.3714 7.71434 29.6594 7.59502C29.9475 7.47571 30.2562 7.4143 30.568 7.4143C31.8758 7.4143 32.9472 8.47831 32.9472 9.78605Z" fill="black"/>
</g>
<defs>
<clipPath id="clip0">
<rect width="39.5911" height="39.5911" fill="white" transform="translate(0.204468 0.557617)"/>
</clipPath>
</defs>
</svg>
