<svg width="41" height="41" viewBox="0 0 41 41" fill="none" xmlns="http://www.w3.org/2000/svg">
<g clip-path="url(#clip0)">
<path d="M34.8966 5.91775C33.0304 4.03425 30.808 2.54101 28.3589 1.52504C25.9098 0.509061 23.283 -0.00933259 20.6316 6.44689e-05C9.52131 6.44689e-05 0.466703 9.05213 0.456526 20.165C0.456526 23.7242 1.38768 27.1868 3.14569 30.2525L0.293701 40.7064L10.9893 37.9027C13.9481 39.513 17.263 40.357 20.6316 40.3578H20.6418C31.7546 40.3578 40.8067 31.3058 40.8168 20.1828C40.8194 17.5319 40.2974 14.9067 39.2809 12.4584C38.2644 10.0102 36.7735 7.78726 34.8941 5.91775H34.8966ZM20.6316 36.9436C17.627 36.9446 14.6775 36.1361 12.0934 34.603L11.4828 34.2366L5.13775 35.9005L6.83215 29.7106L6.43527 29.072C4.75564 26.4015 3.86733 23.3096 3.87331 20.1548C3.87331 10.9297 11.3963 3.40413 20.6418 3.40413C22.8443 3.40018 25.0259 3.83224 27.0607 4.67542C29.0955 5.51859 30.9433 6.75619 32.4975 8.31687C34.0571 9.87147 35.2935 11.7195 36.1354 13.7543C36.9773 15.7891 37.408 17.9705 37.4026 20.1726C37.3924 29.4307 29.8694 36.9436 20.6316 36.9436ZM29.8287 24.3908C29.3275 24.1389 26.852 22.9203 26.3864 22.7473C25.9234 22.5819 25.585 22.4954 25.2543 22.9991C24.9159 23.5003 23.9492 24.6427 23.6591 24.9708C23.3691 25.3092 23.0689 25.3474 22.5651 25.0981C22.0639 24.8436 20.4382 24.3145 18.5149 22.5921C17.0138 21.2564 16.0089 19.6027 15.7087 19.1015C15.4186 18.5978 15.6807 18.3281 15.9326 18.0762C16.1539 17.8523 16.4338 17.486 16.6856 17.1959C16.94 16.9059 17.024 16.6922 17.1894 16.3564C17.3547 16.0155 17.2759 15.7254 17.1512 15.4736C17.024 15.2217 16.0191 12.7361 15.5942 11.7337C15.1871 10.744 14.7724 10.8814 14.462 10.8687C14.172 10.8508 13.8336 10.8508 13.4953 10.8508C13.2397 10.8572 12.9883 10.9163 12.7567 11.0244C12.5251 11.1326 12.3183 11.2874 12.1494 11.4792C11.6864 11.983 10.3914 13.2016 10.3914 15.6873C10.3914 18.1729 12.1978 20.5618 12.4522 20.9002C12.7015 21.2386 15.9987 26.3243 21.059 28.5123C22.2548 29.0338 23.1961 29.3417 23.9314 29.5757C25.1398 29.9625 26.2313 29.9039 27.1014 29.7793C28.0681 29.6317 30.0805 28.5581 30.5054 27.3802C30.9227 26.1997 30.9227 25.1922 30.7955 24.981C30.6708 24.7673 30.3324 24.6427 29.8287 24.3908Z" fill="black"/>
</g>
<defs>
<clipPath id="clip0">
<rect width="40.7063" height="40.7063" fill="white" transform="translate(0.293701)"/>
</clipPath>
</defs>
</svg>
